<?xml version="1.0" encoding="UTF-8"?>
<svg id="Layer_2" data-name="Layer 2" xmlns="http://www.w3.org/2000/svg" viewBox="0 0 402.03 193.75">
  <defs>
    <style>
      .cls-1, .cls-2, .cls-3, .cls-4 {
        stroke-miterlimit: 10;
      }

      .cls-1, .cls-4 {
        stroke: #000;
      }

      .cls-2 {
        stroke: #c92700;
      }

      .cls-2, .cls-3 {
        fill: none;
        stroke-width: 7px;
      }

      .cls-2, .cls-3, .cls-4 {
        stroke-linecap: round;
      }

      .cls-3 {
        stroke: #00c32b;
      }

      .cls-4 {
        stroke-width: 3px;
      }

      .cls-4, .cls-5 {
        fill: #fff;
      }

      .cls-6, .cls-5 {
        stroke-width: 0px;
      }
    </style>
  </defs>
  <g id="Layer_1-2" data-name="Layer 1">
    <g>
      <rect class="cls-5" x=".5" y=".5" width="192.75" height="192.75" rx="9.51" ry="9.51"/>
      <path class="cls-6" d="M183.74,1c4.97,0,9.01,4.04,9.01,9.01v173.74c0,4.97-4.04,9.01-9.01,9.01H10.01c-4.97,0-9.01-4.04-9.01-9.01V10.01C1,5.04,5.04,1,10.01,1h173.74M183.74,0H10.01C4.48,0,0,4.48,0,10.01v173.74c0,5.53,4.48,10.01,10.01,10.01h173.74c5.53,0,10.01-4.48,10.01-10.01V10.01c0-5.53-4.48-10.01-10.01-10.01h0Z"/>
    </g>
    <path class="cls-4" d="M44.5,188.91l-2.69-17.83c-.3-2,1.27-3.81,3.3-3.76,39.87,1.13,41.94-23.07,41.39-31.81-.11-1.74-1.55-3.09-3.3-3.09h-46.01c-1.66,0-3.05-1.26-3.22-2.91l-.03-34.32c0-1.88-1.52-3.4-3.4-3.4H7.09c-.7,0-1.26.59-1.23,1.29l4.54,96.34c.02.42.37.75.79.75h32.22c.67,0,1.19-.6,1.09-1.26Z"/>
    <g>
      <path class="cls-6" d="M80.4,31.43c-7.19,0-13.04-5.85-13.04-13.04s5.85-13.04,13.04-13.04,13.04,5.85,13.04,13.04-5.85,13.04-13.04,13.04Z"/>
      <path class="cls-6" d="M80.4,5.84c6.92,0,12.54,5.63,12.54,12.54s-5.63,12.54-12.54,12.54-12.54-5.63-12.54-12.54,5.63-12.54,12.54-12.54M80.4,4.84c-7.48,0-13.54,6.06-13.54,13.54s6.06,13.54,13.54,13.54,13.54-6.06,13.54-13.54-6.06-13.54-13.54-13.54h0Z"/>
    </g>
    <path class="cls-1" d="M86.56,119.44l3.72,62.5-15.28,4.86v3.37h31.25l-4.17-81.84,4.17-9.03-5.56-56.94s.16-9.01-10.07-9.72-10.23,20.83-10.23,20.83v38.32l6.17,27.65Z"/>
    <line class="cls-2" x1="184.21" y1="7.94" x2="9.9" y2="182.26"/>
    <line class="cls-2" x1="184.06" y1="183.77" x2="8.08" y2="7.8"/>
    <g>
      <path class="cls-5" d="M218.38.5h173.55c5.3,0,9.6,4.3,9.6,9.6v173.55c0,5.3-4.3,9.6-9.6,9.6h-173.54c-5.3,0-9.6-4.3-9.6-9.6V10.1c0-5.3,4.3-9.6,9.6-9.6Z"/>
      <path class="cls-6" d="M391.93,1c5.02,0,9.1,4.08,9.1,9.1v173.55c0,5.02-4.08,9.1-9.1,9.1h-173.55c-5.02,0-9.1-4.08-9.1-9.1V10.1c0-5.02,4.08-9.1,9.1-9.1h173.55M391.93,0h-173.55c-5.58,0-10.1,4.52-10.1,10.1v173.55c0,5.58,4.52,10.1,10.1,10.1h173.55c5.58,0,10.1-4.52,10.1-10.1V10.1c0-5.58-4.52-10.1-10.1-10.1h0Z"/>
    </g>
    <g>
      <path class="cls-6" d="M303.53,59.2c-7.19,0-13.04-5.85-13.04-13.04s5.85-13.04,13.04-13.04,13.04,5.85,13.04,13.04-5.85,13.04-13.04,13.04Z"/>
      <path class="cls-6" d="M303.53,33.62c6.92,0,12.54,5.63,12.54,12.54s-5.63,12.54-12.54,12.54-12.54-5.63-12.54-12.54,5.63-12.54,12.54-12.54M303.53,32.62c-7.48,0-13.54,6.06-13.54,13.54s6.06,13.54,13.54,13.54,13.54-6.06,13.54-13.54-6.06-13.54-13.54-13.54h0Z"/>
    </g>
    <path class="cls-1" d="M276.1,122.38l21.22-47.45s6.2-10.61-5.23-15.83c-10.4-4.75-15,7.41-15,7.41l-21.51,49.28s-6.87,14.79,4.82,16.63c12.87,2.03,15.7-10.04,15.7-10.04Z"/>
    <path class="cls-1" d="M276.29,132.42h-12.22v-17.18s34.59.84,40.33,3.36c5.74,2.52,7.13,5.83,7.13,5.83l.93,8.13,5,43.5,15.89,2.15.58,3.32-30.78,5.41-6.61-53.44-20.26-1.08"/>
    <g>
      <path class="cls-6" d="M308.45,120.92c-5.16,0-7.7-8.83-11.22-21.06-.54-1.87-1.1-3.81-1.69-5.8-1.18-3.96-2.57-7.74-3.8-11.06-2.78-7.53-4.98-13.48-3.21-17.02.73-1.46,2.13-2.48,4.29-3.12.4-.12.79-.18,1.17-.18,5.35,0,8.95,12.1,13.11,26.11l.5,1.68c.73,2.46,1.47,4.82,2.18,7.06,2.99,9.51,5.35,17.03,3.36,20.78-.61,1.15-1.63,1.93-3.11,2.37-.55.16-1.08.25-1.58.25Z"/>
      <path class="cls-6" d="M294,63.23c4.94,0,8.48,11.92,12.58,25.72l.5,1.67c.73,2.47,1.47,4.81,2.18,7.07,2.95,9.39,5.28,16.81,3.4,20.35-.54,1.01-1.45,1.7-2.78,2.1-.5.15-.97.22-1.42.22-4.74,0-7.36-9.11-10.69-20.65-.54-1.87-1.1-3.81-1.69-5.81-1.19-3.98-2.58-7.76-3.81-11.1-2.73-7.41-4.89-13.26-3.23-16.58.66-1.31,1.95-2.24,3.95-2.83.35-.1.69-.16,1.02-.16M293.99,62.12c-.43,0-.88.07-1.33.2-10.83,3.22-2.58,15.36,2.35,31.89,4.53,15.23,7.03,27.26,13.45,27.26.55,0,1.13-.09,1.74-.27,8.18-2.44,2.87-14.37-2.05-30.9-4.59-15.42-8.16-28.19-14.15-28.19h0Z"/>
    </g>
    <path class="cls-4" d="M251.86,188.91l-2.69-17.83c-.3-2,1.27-3.81,3.3-3.76,39.87,1.13,41.94-23.07,41.39-31.81-.11-1.74-1.55-3.09-3.3-3.09h-46.01c-1.66,0-3.05-1.26-3.22-2.91l-.03-34.32c0-1.88-1.52-3.4-3.4-3.4h-23.45c-.7,0-1.26.59-1.23,1.29l4.54,96.34c.02.42.37.75.79.75h32.22c.67,0,1.19-.6,1.09-1.26Z"/>
    <line class="cls-3" x1="216.6" y1="113.79" x2="289.67" y2="186.94"/>
    <line class="cls-3" x1="393.61" y1="8.6" x2="289.67" y2="186.94"/>
  </g>
</svg>